<svg xmlns="http://www.w3.org/2000/svg" viewBox="0 0 800 600">
  <defs>
    <linearGradient id="a" x1="0" x2="1" y1="0" y2="1">
      <stop offset="0" stop-color="#7c3aed"/>
      <stop offset="1" stop-color="#06b6d4"/>
    </linearGradient>
  </defs>
  <rect width="100%" height="100%" fill="url(#a)" rx="24"/>
  <g transform="translate(60,80)" fill="#fff">
    <rect x="0" y="40" width="200" height="12" rx="6" opacity="0.12"/>
    <rect x="0" y="80" width="240" height="12" rx="6" opacity="0.08"/>
    <rect x="0" y="120" width="160" height="12" rx="6" opacity="0.06"/>
  </g>
  <g transform="translate(280,60)" fill="#fff">
    <path d="M0 0h220v12a12 12 0 0 1-12 12H12A12 12 0 0 1 0 12V0z" opacity="0.95"/>
    <rect x="20" y="28" width="180" height="12" rx="6" opacity="0.12"/>
    <rect x="20" y="60" width="140" height="12" rx="6" opacity="0.08"/>
  </g>
  <g transform="translate(160,240)" fill="#fff">
    <rect x="0" y="0" width="120" height="160" rx="12" opacity="0.95"/>
    <rect x="140" y="0" width="120" height="160" rx="12" opacity="0.9"/>
    <rect x="280" y="0" width="120" height="160" rx="12" opacity="0.85"/>
  </g>
  <g transform="translate(520,320)" fill="#fff" opacity="0.06">
    <circle cx="40" cy="40" r="40" />
    <circle cx="120" cy="20" r="30" />
  </g>
</svg>
